Coordinates
version=1
nRows=14
nColumns=33
inDegrees=yes

Units are S.I. units (second, meters, Newtons, ...)
Angles are in degrees.

endheader
time	ground_thorax_rot_x	ground_thorax_rot_y	ground_thorax_rot_z	ground_thorax_tx	ground_thorax_ty	ground_thorax_tz	clav_prot_r	clav_elev_r	scapula_abduction_r	scapula_elevation_r	scapula_upward_rot_r	scapula_winging_r	shoulder_elv_r	plane_of_elev_r	axial_rot_r	elbow_flexion_r	pro_sup_r	wrist_flex_r	wrist_dev_r	clav_prot_l	clav_elev_l	scapula_abduction_l	scapula_elevation_l	scapula_upward_rot_l	scapula_winging_l	shoulder_elv_l	plane_of_elev_l	axial_rot_l	elbow_flexion_l	pro_sup_l	wrist_flex_l	wrist_dev_l
      6.28000000	     35.63774890	      3.91445745	     11.42423289	   -132.89519753	    820.58868602	     -1.38450491	     17.53605934	     39.83288618	     45.00000000	     45.00000000	    -39.98584838	  -2963.14862480	  -1544.58153278	    144.07715723	    179.99999979	   1092.55390007	     41.39878257	     21.17680651	      9.73408317	      7.17648872	    -45.00000000	    -45.00000000	     45.00000000	    -13.19738746	   -266.24401063	  -3886.48985215	     25.20227808	     -9.69376237	    366.07693477	     32.29349879	      8.51612415	    -21.85715883
      6.29000000	     35.69435875	      3.98544317	     11.32844209	   -137.95611393	    821.92969373	     -1.42957489	     17.57801912	     39.69845045	     45.00000000	     45.00000000	    -40.90907488	  -2963.38791906	  -1544.16227061	    144.08181121	    179.99999979	   1092.77100984	     42.63297884	     21.31562212	      9.46063373	      7.29591734	    -45.00000000	    -45.00000000	     45.00000000	    -13.52164507	   -265.75779386	  -3886.25163917	     25.02433805	    -10.70673819	    366.32308824	     31.35857541	      8.44069428	    -21.94738003
      6.30000000	     35.65327021	      4.63451069	     11.87043293	   -143.04995550	    823.18554458	     -1.46327383	     17.50603902	     39.35684172	     45.00000000	     45.00000000	    -42.04884560	  -2963.83684951	  -1544.20526574	    144.11925549	    179.99999979	   1092.81831008	     44.09874000	     21.13171315	      8.80499196	      7.64370949	    -45.00000000	    -45.00000000	     45.00000000	    -14.72177613	   -265.20000903	  -3886.00379392	     24.85142110	    -11.75581655	    366.57351400	     30.32625884	      8.26098767	    -22.02862463
      6.31000000	     35.66307806	      5.01567422	     12.09163009	   -148.16216587	    824.34868926	     -1.48601624	     17.40976065	     39.16288691	     45.00000000	     45.00000000	    -43.26972931	  -2964.08325053	  -1543.93939428	    144.18373756	    179.99999979	   1093.00554213	     45.75249901	     21.08981180	      8.33128838	      8.01346022	    -45.00000000	    -45.00000000	     45.00000000	    -15.91678741	   -264.69230813	  -3885.74334268	     24.78320710	    -12.68282992	    366.83257690	     29.26775595	      8.11600963	    -22.09089908
      6.32000000	     35.71780860	      5.08382141	     11.93487304	   -153.26977021	    825.41176836	     -1.49828813	     17.67544987	     38.82587944	     45.00000000	     45.00000000	    -44.14934524	  -2964.44395287	  -1543.77229892	    144.05960134	    179.99999979	   1093.08468251	     47.28941006	     21.16770821	      8.12599888	      8.03274141	    -45.00000000	    -45.00000000	     45.00000000	    -16.15545157	   -264.24579128	  -3885.61557203	     24.65451849	    -13.32042129	    366.86519199	     28.49786062	      8.18910644	    -22.18324071
      6.33000000	     35.77445747	      5.24958735	     11.97219045	   -158.34395027	    826.37027616	     -1.50091736	     17.73091695	     38.77044823	     45.00000000	     45.00000000	    -45.00000000	  -2964.64090272	  -1543.55861827	    144.14191966	    179.99999979	   1093.15523355	     48.76375741	     21.32832427	      7.99471880	      8.20502330	    -45.00000000	    -45.00000000	     45.00000000	    -16.55334621	   -263.79832252	  -3885.47917979	     24.43409050	    -13.86756140	    366.85421210	     27.84361892	      8.09216305	    -22.19880736
      6.34000000	     35.88930330	      5.12357173	     11.46730213	   -163.36051186	    827.22088638	     -1.49381364	     17.16658413	     39.40088015	     44.96920266	     45.00000000	    -45.00000000	  -2964.70290838	  -1543.58308726	    144.68429737	    179.99999979	   1093.54203149	     50.03963894	     22.20939731	      8.38909779	      8.40452042	    -45.00000000	    -45.00000000	     45.00000000	    -16.32120856	   -263.54950936	  -3885.36007220	     24.11187346	    -13.92726024	    367.01973104	     27.28369949	      7.73778998	    -22.12574798
      6.35000000	     35.88459106	      5.65772710	     11.80248064	   -168.30551403	    827.96403876	     -1.47598135	     17.33229534	     38.57723569	     44.37626267	     45.00000000	    -45.00000000	  -2965.01929278	  -1543.78707285	    144.48301475	    179.99999979	   1093.12697994	     51.51688220	     21.58428505	      7.73058040	      8.76998665	    -45.00000000	    -45.00000000	     45.00000000	    -18.39430664	   -263.04592802	  -3885.19649222	     24.31925802	    -14.79508382	    367.07008117	     26.92023157	      7.79428223	    -22.29924301
      6.36000000	     35.89223824	      6.09527193	     11.90424231	   -173.15143079	    828.59649359	     -1.44476825	     17.10217632	     38.57128873	     43.73142348	     45.00000000	    -45.00000000	  -2964.96757042	  -1543.75780232	    144.79358164	    179.99999979	   1093.26870734	     53.15532144	     21.55084254	      7.43160240	      9.14097121	    -45.00000000	    -44.95850811	     45.00000000	    -19.87527144	   -262.70079656	  -3885.05591293	     24.32942820	    -15.26751462	    367.26220085	     26.50619254	      7.65053808	    -22.36989627
      6.37000000	     35.95912385	      6.24572866	     11.86974595	   -177.88118281	    829.11734128	     -1.39645786	     16.96500146	     38.38460638	     43.37251020	     45.00000000	    -45.00000000	  -2965.07082963	  -1543.84012953	    144.88582493	    179.99999979	   1093.21343570	     54.53104378	     21.73605803	      7.36637135	      9.24330946	    -45.00000000	    -44.61024765	     45.00000000	    -20.88838642	   -262.50108284	  -3884.95258517	     24.26166153	    -15.52679973	    367.22780808	     26.27468103	      7.58602546	    -22.40793979
      6.38000000	     36.09632620	      6.19571307	     11.51457023	   -182.48110037	    829.52345070	     -1.32580128	     16.40577530	     38.79747091	     42.95293020	     45.00000000	    -45.00000000	  -2965.28398483	  -1543.74693368	    144.73266748	    179.99999979	   1093.10328495	     55.53687948	     22.47760683	      7.67730881	      9.04401672	    -45.00000000	    -44.24872147	     45.00000000	    -21.44193012	   -262.50084324	  -3884.87824350	     24.12694329	    -15.57258805	    367.13900813	     26.14743334	      7.32236447	    -22.34116123
      6.39000000	     36.09827491	      6.68446593	     11.89357136	   -186.93083509	    829.81456798	     -1.22883268	     16.70286803	     38.23557325	     42.60074646	     45.00000000	    -45.00000000	  -2965.23204737	  -1543.98720779	    145.16781556	    179.99999979	   1092.99806928	     56.65430080	     22.10815938	      7.32386375	      9.31853519	    -45.00000000	    -43.68586522	     45.00000000	    -23.53251448	   -262.32016644	  -3884.72413651	     24.19887926	    -16.02373554	    367.29078012	     26.18174788	      7.33176303	    -22.47933092
      6.40000000	     36.19601290	      6.78782640	     11.84075438	   -191.21073884	    829.96825990	     -1.09597203	     16.46441738	     38.28023448	     42.25834353	     45.00000000	    -45.00000000	  -2965.29691222	  -1544.05250248	    145.20709379	    179.99999979	   1092.72757045	     57.57824625	     22.44227954	      7.41269683	      9.29050551	    -45.00000000	    -43.30345298	     45.00000000	    -24.74557297	   -262.24927367	  -3884.63626932	     24.12177126	    -16.06392246	    367.24635960	     26.24237990	      7.20392332	    -22.49414064
      6.41000000	     36.26528234	      7.09257255	     11.92552316	   -195.31016777	    829.99784242	     -0.92917450	     16.44302197	     38.15752091	     41.85733211	     45.00000000	    -45.00000000	  -2965.34645883	  -1544.17344729	    145.39099081	    179.99999979	   1092.60406723	     58.40198062	     22.52153731	      7.34945933	      9.40330340	    -45.00000000	    -42.78347123	     45.00000000	    -26.32690548	   -262.19006058	  -3884.57361628	     24.17637805	    -16.23274505	    367.27817332	     26.41782096	      7.11735651	    -22.55456715
